<svg width="46" height="38" viewBox="0 0 46 38" fill="none" xmlns="http://www.w3.org/2000/svg">
<path d="M24.0684 7.5918C24.0684 9.23242 23.8574 10.9199 23.4355 12.6543C23.0254 14.377 22.4512 16.0938 21.7129 17.8047C20.9863 19.5156 20.1309 21.1914 19.1465 22.832C18.1621 24.4727 17.1074 26.0254 15.9824 27.4902C14.8574 28.9551 13.6797 30.3027 12.4492 31.5332C11.2305 32.7637 10.0176 33.8242 8.81055 34.7148C7.60352 35.6055 6.43164 36.2969 5.29492 36.7891C4.1582 37.293 3.10938 37.5449 2.14844 37.5449C1.84375 37.5449 1.5625 37.4863 1.30469 37.3691C1.04688 37.2637 0.830078 37.123 0.654297 36.9473C0.466797 36.7715 0.320312 36.5664 0.214844 36.332C0.109375 36.1094 0.0566406 35.875 0.0566406 35.6289C0.0566406 34.9258 0.308594 34.1582 0.8125 33.3262C1.31641 32.5059 1.99023 31.6621 2.83398 30.7949C3.67773 29.9395 4.65039 29.0957 5.75195 28.2637C6.85352 27.4316 8.00781 26.6582 9.21484 25.9434C10.4219 25.2285 11.6348 24.6074 12.8535 24.0801C14.084 23.541 15.2441 23.1426 16.334 22.8848C17.4355 20.6582 18.3145 18.2969 18.9707 15.8008C19.6387 13.293 19.9727 10.6621 19.9727 7.9082C19.9727 6.99414 19.9258 6.22656 19.832 5.60547C19.7383 4.98438 19.6094 4.49219 19.4453 4.12891C19.293 3.75391 19.1113 3.49023 18.9004 3.33789C18.7012 3.17383 18.4844 3.0918 18.25 3.0918C18.0508 3.0918 17.7988 3.16797 17.4941 3.32031C17.1895 3.46094 16.8613 3.71289 16.5098 4.07617C16.1582 4.43945 15.8008 4.92578 15.4375 5.53516C15.0859 6.13281 14.7695 6.88281 14.4883 7.78516C14.207 8.6875 13.9727 9.75977 13.7852 11.002C13.6094 12.2441 13.5215 13.6855 13.5215 15.3262C13.5215 15.959 13.5449 16.5625 13.5918 17.1367C13.6387 17.7109 13.6914 18.2441 13.75 18.7363C13.8203 19.2285 13.8789 19.6738 13.9258 20.0723C13.9727 20.4707 13.9961 20.8105 13.9961 21.0918C13.9961 21.1973 13.9668 21.2969 13.9082 21.3906C13.8496 21.4727 13.7441 21.5137 13.5918 21.5137C13.1465 21.5137 12.7246 21.3613 12.3262 21.0566C11.9277 20.752 11.5762 20.377 11.2715 19.9316C10.9785 19.4746 10.7441 18.9824 10.5684 18.4551C10.4043 17.9277 10.3223 17.4355 10.3223 16.9785C10.3223 15.877 10.4219 14.7168 10.6211 13.498C10.832 12.2676 11.1309 11.0605 11.5176 9.87695C11.916 8.68164 12.4023 7.54492 12.9766 6.4668C13.5508 5.38867 14.207 4.43945 14.9453 3.61914C15.6836 2.79883 16.498 2.14844 17.3887 1.66797C18.291 1.17578 19.2578 0.929688 20.2891 0.929688C20.793 0.929688 21.2383 1.0293 21.625 1.22852C22.0117 1.42773 22.3457 1.70312 22.627 2.05469C22.9082 2.39453 23.1426 2.78711 23.3301 3.23242C23.5176 3.67773 23.6641 4.15234 23.7695 4.65625C23.875 5.14844 23.9512 5.64648 23.998 6.15039C24.0449 6.6543 24.0684 7.13477 24.0684 7.5918ZM11.4824 30.1973C12.2441 29.3184 12.9648 28.3867 13.6445 27.4023C14.3359 26.418 14.9805 25.3809 15.5781 24.291C13.6914 25.0059 12.0801 25.7676 10.7441 26.5762C9.41992 27.373 8.33594 28.1523 7.49219 28.9141C6.66016 29.6758 6.05664 30.3848 5.68164 31.041C5.29492 31.6973 5.10156 32.2305 5.10156 32.6406C5.10156 32.9805 5.21875 33.2031 5.45312 33.3086C5.67578 33.4141 5.93359 33.4668 6.22656 33.4668C6.60156 33.4668 7.01758 33.3789 7.47461 33.2031C7.93164 33.0273 8.38867 32.7871 8.8457 32.4824C9.31445 32.1895 9.77734 31.8438 10.2344 31.4453C10.6914 31.0586 11.1074 30.6426 11.4824 30.1973ZM35.8809 22.1641C35.6348 22.8203 35.3242 23.5059 34.9492 24.2207C34.5859 24.9355 34.1816 25.5918 33.7363 26.1895C33.291 26.7754 32.8164 27.2617 32.3125 27.6484C31.8086 28.0234 31.3047 28.2109 30.8008 28.2109C30.4609 28.2109 30.1797 28.1289 29.957 27.9648C29.7344 27.7891 29.5527 27.5781 29.4121 27.332C29.2832 27.0742 29.1895 26.7988 29.1309 26.5059C29.0723 26.2129 29.043 25.9434 29.043 25.6973C29.043 25.3223 29.084 24.8887 29.166 24.3965C29.2598 23.9043 29.4355 23.3418 29.6934 22.709C29.2949 23.248 28.873 23.7988 28.4277 24.3613C27.9941 24.9121 27.5488 25.4102 27.0918 25.8555C26.6465 26.3008 26.1953 26.6699 25.7383 26.9629C25.293 27.2441 24.8711 27.3848 24.4727 27.3848C24.2852 27.3848 24.0859 27.3379 23.875 27.2441C23.6641 27.1387 23.4707 26.9922 23.2949 26.8047C23.1074 26.6055 22.9551 26.3652 22.8379 26.084C22.7207 25.791 22.6621 25.457 22.6621 25.082C22.6621 24.4492 22.8086 23.752 23.1016 22.9902C23.3945 22.2168 23.7637 21.4434 24.209 20.6699C24.666 19.8965 25.1699 19.1465 25.7207 18.4199C26.2715 17.6934 26.8047 17.0605 27.3203 16.5215C27.7891 16.0176 28.2285 15.5898 28.6387 15.2383C29.0605 14.8867 29.4531 14.6055 29.8164 14.3945C30.1914 14.1719 30.543 14.0137 30.8711 13.9199C31.1992 13.8145 31.5156 13.7559 31.8203 13.7441C32.1016 13.7441 32.3359 13.7793 32.5234 13.8496C32.7109 13.9082 32.8574 13.9902 32.9629 14.0957C33.0684 14.2012 33.1387 14.3242 33.1738 14.4648C33.2207 14.6055 33.2441 14.752 33.2441 14.9043C33.2441 15.0684 33.1973 15.2793 33.1035 15.5371C33.0098 15.7949 32.8809 16.0527 32.7168 16.3105C32.5527 16.5684 32.3594 16.791 32.1367 16.9785C31.9258 17.1543 31.6973 17.2422 31.4512 17.2422C31.3574 17.2422 31.2988 17.207 31.2754 17.1367C31.252 17.0664 31.2402 16.9785 31.2402 16.873C31.2402 16.6738 31.2637 16.4395 31.3105 16.1699C31.3574 15.9004 31.3809 15.666 31.3809 15.4668C31.3809 15.291 31.3574 15.168 31.3105 15.0977C31.2754 15.0156 31.1934 14.9746 31.0645 14.9746C30.7598 15.1035 30.4316 15.3555 30.0801 15.7305C29.7402 16.0938 29.4004 16.5273 29.0605 17.0312C28.7207 17.5234 28.3926 18.0625 28.0762 18.6484C27.7715 19.2227 27.4961 19.7969 27.25 20.3711C27.0156 20.9336 26.8281 21.4727 26.6875 21.9883C26.5469 22.4922 26.4766 22.9141 26.4766 23.2539C26.4766 23.5 26.5117 23.6934 26.582 23.834C26.6523 23.9746 26.7402 24.0449 26.8457 24.0449C26.9277 24.0449 27.0566 23.9688 27.2324 23.8164C27.4082 23.6641 27.6074 23.4648 27.8301 23.2188C28.0645 22.9727 28.3047 22.6973 28.5508 22.3926C28.7969 22.0762 29.0371 21.7656 29.2715 21.4609C29.5176 21.1562 29.7402 20.8691 29.9395 20.5996C30.1387 20.3301 30.2969 20.1074 30.4141 19.9316C30.7188 19.4863 30.9297 19.1406 31.0469 18.8945C31.1758 18.6484 31.3105 18.5254 31.4512 18.5254C31.5098 18.5254 31.5918 18.5723 31.6973 18.666C31.8145 18.7598 31.9258 18.8711 32.0312 19C32.1484 19.1172 32.248 19.2402 32.3301 19.3691C32.4121 19.498 32.4531 19.5918 32.4531 19.6504C32.4531 19.8145 32.377 20.0488 32.2246 20.3535C32.0723 20.6465 31.8613 21.1211 31.5918 21.7773C31.2871 22.4805 31.0586 23.1367 30.9062 23.7461C30.7656 24.3555 30.6953 24.8945 30.6953 25.3633C30.6953 25.5273 30.707 25.6914 30.7305 25.8555C30.7539 26.0195 30.7949 26.1719 30.8535 26.3125C30.9121 26.4414 30.9941 26.5527 31.0996 26.6465C31.2051 26.7285 31.3457 26.7695 31.5215 26.7695C31.8027 26.7695 32.0898 26.6582 32.3828 26.4355C32.6875 26.2012 32.9746 25.9082 33.2441 25.5566C33.5254 25.2051 33.7891 24.8301 34.0352 24.4316C34.2812 24.0215 34.498 23.6348 34.6855 23.2715C34.873 22.9082 35.0195 22.6035 35.125 22.3574C35.2422 22.0996 35.3125 21.9531 35.3359 21.918C35.4297 21.7305 35.541 21.6367 35.6699 21.6367C35.7402 21.6367 35.8047 21.6602 35.8633 21.707C35.9219 21.7539 35.9512 21.8242 35.9512 21.918C35.9512 21.9883 35.9277 22.0703 35.8809 22.1641ZM45.2148 10C45.2148 10.2578 45.1387 10.5684 44.9863 10.9316C44.834 11.2832 44.6348 11.623 44.3887 11.9512C44.1543 12.2676 43.8906 12.5371 43.5977 12.7598C43.3164 12.9824 43.041 13.0938 42.7715 13.0938C42.4082 13.0938 42.0977 12.9824 41.8398 12.7598C41.5938 12.5371 41.4707 12.3027 41.4707 12.0566C41.4707 11.9512 41.5059 11.793 41.5762 11.582C41.6582 11.3711 41.7578 11.1426 41.875 10.8965C42.0039 10.6387 42.1504 10.3809 42.3145 10.123C42.4902 9.85352 42.6719 9.61328 42.8594 9.40234C43.0586 9.17969 43.252 9.00391 43.4395 8.875C43.6387 8.73438 43.832 8.66406 44.0195 8.66406C44.4883 8.66406 44.8047 8.77539 44.9688 8.99805C45.1328 9.2207 45.2148 9.55469 45.2148 10ZM42.9473 22.1641C42.5371 23.0898 42.0859 23.9395 41.5938 24.7129C41.1133 25.4746 40.6152 26.1309 40.0996 26.6816C39.584 27.2207 39.0508 27.6426 38.5 27.9473C37.9609 28.252 37.4277 28.4043 36.9004 28.4043C36.502 28.4043 36.1621 28.3164 35.8809 28.1406C35.5996 27.9766 35.3711 27.748 35.1953 27.4551C35.0078 27.1621 34.873 26.8223 34.791 26.4355C34.709 26.0371 34.668 25.6094 34.668 25.1523C34.668 24.2969 34.7852 23.4531 35.0195 22.6211C35.2539 21.7773 35.5527 20.957 35.916 20.1602C36.291 19.3516 36.7129 18.5605 37.1816 17.7871C37.6504 17.0137 38.1191 16.2637 38.5879 15.5371C38.6934 15.3613 38.8223 15.2031 38.9746 15.0625C39.127 14.9219 39.2734 14.8516 39.4141 14.8516C39.6133 14.8516 39.8125 14.8867 40.0117 14.957C40.2109 15.0273 40.3926 15.1211 40.5566 15.2383C40.7207 15.3438 40.8496 15.4668 40.9434 15.6074C41.0488 15.7363 41.1016 15.8711 41.1016 16.0117C41.1016 16.1758 41.002 16.4453 40.8027 16.8203C40.6035 17.1953 40.3516 17.6465 40.0469 18.1738C39.7422 18.6895 39.4141 19.2637 39.0625 19.8965C38.7227 20.5293 38.4004 21.1855 38.0957 21.8652C37.791 22.5449 37.5391 23.2305 37.3398 23.9219C37.1406 24.6016 37.041 25.252 37.041 25.873C37.041 26.0254 37.0469 26.1777 37.0586 26.3301C37.082 26.4707 37.123 26.5996 37.1816 26.7168C37.252 26.8223 37.3516 26.9102 37.4805 26.9805C37.6211 27.0391 37.8086 27.0684 38.043 27.0684C38.2891 27.0684 38.5938 26.9219 38.957 26.6289C39.332 26.3359 39.7188 25.9492 40.1172 25.4688C40.5273 24.9766 40.9316 24.4258 41.3301 23.8164C41.7402 23.1953 42.0977 22.5625 42.4023 21.918C42.4961 21.7305 42.6016 21.6367 42.7188 21.6367C42.8008 21.6367 42.8711 21.6602 42.9297 21.707C42.9883 21.7539 43.0176 21.8242 43.0176 21.918C43.0176 21.9883 42.9941 22.0703 42.9473 22.1641Z" fill="white"/>
</svg>
